<?xml version="1.0"?>
<svg xmlns="http://www.w3.org/2000/svg" xmlns:xlink="http://www.w3.org/1999/xlink" version="1.1" id="Capa_1" x="0px" y="0px" viewBox="0 0 496 496" style="enable-background:new 0 0 496 496;" xml:space="preserve" width="512px" height="512px" class=""><g><g>
	<g>
		<g>
			<path d="M248,216c-17.648,0-32,14.352-32,32s14.352,32,32,32s32-14.352,32-32S265.648,216,248,216z M248,264     c-8.824,0-16-7.176-16-16c0-8.824,7.176-16,16-16c8.816,0,16,7.176,16,16C264,256.824,256.816,264,248,264z" data-original="#000000" class="active-path" data-old_color="#02b3e4" fill="#02b3e4"/>
			<path d="M416.992,405.624l-0.632-0.36c-23.592-13.128-45.232-29.464-64.336-48.552c-17.752-17.76-30.24-40.12-36.12-64.664     c-2.64-11.064-0.664-23.224,5.552-33.6C328.4,246.896,340.64,240,354.216,240h0.848c9.864,0,19.144,3.84,26.128,10.824     C388.16,257.8,392,267.072,392,276.936v58.016l32.672-21.792c19.312-12.864,35.016-30.656,45.408-51.432     C487.04,227.816,496,189.84,496,151.92c0-48.632-14.256-95.736-41.24-136.2L444.28,0H424v8c0,24.808-6.368,49.384-18.672,71.544     c-13.112,23.6-29.44,45.248-48.616,64.432c-17.752,17.752-40.112,30.232-64.656,36.12c-11.088,2.64-23.232,0.664-33.608-5.552     C246.896,167.6,240,155.36,240,141.784v-0.864c0-9.864,3.84-19.136,10.816-26.104c6.968-6.984,16.232-10.816,26.088-10.816     c0.008,0,0.016,0,0.016,0h58.024L313.16,71.32c-12.768-19.144-30.216-34.68-50.472-44.912C228.512,9.136,190.208,0,151.92,0     C103.28,0,56.176,14.256,15.712,41.24L0,51.72V72h8c24.808,0,49.384,6.368,71.456,18.624     c23.664,13.144,45.368,29.504,64.528,48.664c17.752,17.76,30.24,40.12,36.12,64.664c2.64,11.064,0.664,23.224-5.552,33.6     C167.6,249.104,155.36,256,141.784,256h-0.84c-9.864,0-19.144-3.84-26.128-10.824C107.832,238.2,104,228.928,104,219.064v-58.016     L71.328,182.84c-19.312,12.864-35.016,30.656-45.408,51.432C8.96,268.184,0,306.16,0,344.08c0,48.632,14.256,95.736,41.24,136.2     L51.72,496H72v-8c0-24.808,6.368-49.384,18.568-71.336c13.144-23.712,29.528-45.448,48.72-64.64     c17.752-17.752,40.112-30.232,64.664-36.12c11.056-2.64,23.216-0.672,33.6,5.552C249.104,328.4,256,340.64,256,354.216v0.84     c0,9.864-3.848,19.144-10.824,26.128C238.2,388.16,228.936,392,219.08,392c-0.008,0-0.016,0-0.016,0h-58.016l21.792,32.672     c12.768,19.152,30.216,34.688,50.48,44.92C267.48,486.864,305.792,496,344.08,496c48.632,0,95.728-14.256,136.2-41.232     L496,444.28V424h-8C463.192,424,438.616,417.632,416.992,405.624z M471.408,441.456C433.568,466.672,389.536,480,344.08,480     c-35.8,0-71.6-8.536-103.544-24.688c-17.8-8.992-33.144-22.656-44.384-39.512l-5.2-7.8h28.112c0,0,0.008,0,0.016,0     c14.136,0,27.424-5.504,37.416-15.504c10-10,15.512-23.296,15.512-37.44v-0.84c0-19.248-9.8-36.624-26.44-46.608     c-13.912-8.344-29.992-10.936-45.336-7.264c-27.432,6.568-52.416,20.528-72.264,40.384     c-20.232,20.224-37.512,43.168-51.528,68.424c-11.168,20.104-17.928,42.44-19.856,65.28l-2.016-3.024     C29.336,433.568,16,389.536,16,344.08c0-35.456,8.384-70.952,24.232-102.656C49.384,223.136,63.2,207.48,80.2,196.152l7.8-5.2     v28.112c-0.008,14.136,5.496,27.432,15.496,37.432S126.8,272,140.936,272h0.84c19.248,0,36.624-9.8,46.608-26.44     c8.344-13.912,10.928-30.016,7.264-45.336c-6.568-27.424-20.52-52.408-40.384-72.264c-20.192-20.192-43.088-37.464-68.424-51.528     C66.744,65.264,44.408,58.496,21.56,56.568l3.024-2.016C62.424,29.336,106.456,16,151.92,16c35.792,0,71.6,8.536,103.552,24.688     c17.792,8.992,33.136,22.656,44.376,39.504L305.056,88H276.92c0,0-0.008,0-0.016,0c-14.136,0-27.416,5.504-37.408,15.488     c-9.992,10-15.496,23.296-15.496,37.424v0.864c0,19.248,9.8,36.624,26.44,46.608c13.92,8.344,30,10.912,45.344,7.264     c27.424-6.568,52.408-20.528,72.328-40.456c20.152-20.144,37.376-42.984,51.464-68.352c11.168-20.104,17.928-42.44,19.856-65.28     l2.016,3.024C466.664,62.432,480,106.464,480,151.92c0,35.456-8.384,70.952-24.232,102.656     c-9.152,18.288-22.968,33.944-39.968,45.272l-7.8,5.2v-28.112c0.008-14.136-5.504-27.432-15.504-37.432S369.2,224,355.064,224     h-0.848c-19.248,0-36.624,9.8-46.608,26.44c-8.344,13.912-10.928,30.016-7.264,45.336c6.568,27.424,20.52,52.408,40.368,72.248     c20.144,20.152,42.984,37.384,67.864,51.224l0.568,0.32c20.112,11.168,42.448,17.928,65.288,19.856L471.408,441.456z" data-original="#000000" class="active-path" data-old_color="#02b3e4" fill="#02b3e4"/>
			<path d="M390.648,177.912c22.304-22.296,41.36-47.544,56.648-75.072c2.056-3.72,3.992-7.48,5.808-11.288l-14.456-6.872     c-1.672,3.512-3.456,6.992-5.344,10.408c-14.56,26.208-32.72,50.264-53.968,71.512c-3.96,3.96-8.128,7.736-12.384,11.2     l10.128,12.392C381.744,186.392,386.304,182.256,390.648,177.912z" data-original="#000000" class="active-path" data-old_color="#02b3e4" fill="#02b3e4"/>
			<path d="M364.52,199.608l-9.048-13.2c-3.544,2.432-7.192,4.728-10.92,6.872l8,13.856     C356.68,204.76,360.704,202.216,364.52,199.608z" data-original="#000000" class="active-path" data-old_color="#02b3e4" fill="#02b3e4"/>
			<path d="M177.912,105.352c-22.296-22.304-47.544-41.36-75.072-56.648c-3.72-2.056-7.48-3.992-11.288-5.808L84.68,57.352     c3.512,1.672,6.992,3.456,10.408,5.344c26.208,14.56,50.264,32.72,71.52,53.968c3.96,3.96,7.736,8.128,11.2,12.384L190.2,118.92     C186.392,114.256,182.256,109.696,177.912,105.352z" data-original="#000000" class="active-path" data-old_color="#02b3e4" fill="#02b3e4"/>
			<path d="M186.408,140.52c2.432,3.544,4.728,7.192,6.872,10.92l13.856-8c-2.384-4.128-4.92-8.152-7.528-11.968L186.408,140.52z" data-original="#000000" class="active-path" data-old_color="#02b3e4" fill="#02b3e4"/>
			<path d="M105.352,318.088c-22.304,22.296-41.36,47.544-56.648,75.072c-2.056,3.72-3.992,7.48-5.808,11.288l14.456,6.872     c1.672-3.512,3.456-6.992,5.344-10.408c14.56-26.208,32.72-50.264,53.968-71.512c3.96-3.96,8.128-7.736,12.384-11.2     l-10.128-12.392C114.256,309.608,109.696,313.744,105.352,318.088z" data-original="#000000" class="active-path" data-old_color="#02b3e4" fill="#02b3e4"/>
			<path d="M131.48,296.392l9.048,13.2c3.544-2.432,7.192-4.728,10.92-6.872l-8-13.856     C139.32,291.24,135.296,293.784,131.48,296.392z" data-original="#000000" class="active-path" data-old_color="#02b3e4" fill="#02b3e4"/>
			<path d="M329.4,379.336c-3.96-3.96-7.736-8.128-11.2-12.384l-12.392,10.128c3.808,4.664,7.936,9.224,12.28,13.568     c22.296,22.304,47.544,41.36,75.072,56.648c3.72,2.056,7.48,3.992,11.288,5.808l6.872-14.456     c-3.512-1.672-6.992-3.456-10.408-5.344C374.704,418.744,350.648,400.584,329.4,379.336z" data-original="#000000" class="active-path" data-old_color="#02b3e4" fill="#02b3e4"/>
			<path d="M302.72,344.552l-13.856,8c2.384,4.128,4.92,8.152,7.528,11.968l13.2-9.048     C307.16,351.928,304.864,348.28,302.72,344.552z" data-original="#000000" class="active-path" data-old_color="#02b3e4" fill="#02b3e4"/>
		</g>
	</g>
</g></g> </svg>
